<svg version="1" xmlns="http://www.w3.org/2000/svg" width="853.333" height="853.333" viewBox="0 0 640.000000 640.000000"><path d="M299.5.6c-1.6.2-7.9.9-14 1.5-59 5.9-117.9 30.2-166 68.5C105.6 81.7 82 105.3 71.1 119c-27 33.9-47.8 74.1-59.1 114.5-2.3 8.1-8.1 34.8-7.6 35.2.1.1 7.2-5.1 15.7-11.5 74.4-56.1 133.2-86.8 196.5-102.6 23.4-5.8 36.6-7.7 59.5-8.3 45.8-1.4 77.5 5.4 138.4 29.7 43.6 17.4 58.9 21.7 80.5 22.6 21.1 1 59.9-4.2 94.9-12.6l17.2-4.2-6-11.3c-7.9-15.1-16.3-28.3-26.5-41.9-10.7-14.1-14.3-18.3-29.1-33.2l-12-12.1-35.5-3.7c-40.9-4.3-40.9-4.3-35.3-4.5 2.3 0 18 1.5 35 3.4 16.9 1.9 31.9 3.5 33.3 3.5l2.5-.1-2.5-1.8c-1.4-1.1-3.7-3-5.1-4.3-1.4-1.2-4-3.4-5.9-4.8-1.8-1.4-4.1-3.2-5-4-1-.8-2.8-2.2-4-3-1.2-.8-2.8-2-3.4-2.6-1.5-1.4-18.7-12.8-20.6-13.7-.8-.4-2.8-1.6-4.5-2.7-11.4-7.4-34.1-18.3-50-24.1-4.4-1.6-8.9-3.3-10-3.8-10.2-4.7-40.1-11.6-63.6-14.7C348.1 1 306-.3 299.5.6zm107 73.5c-41.5.8-60.2 2.6-100.3 9.1l-19.4 3.2-12 11.5c-13.2 12.7-29.8 32-38.1 44.2-2.8 4.3-5.6 7.8-6 7.9-.4 0 1-2.6 3.1-5.8 11-16 28.5-36.2 44-50.8l8.4-7.8 15.9-2.7c20.1-3.5 52.4-7.6 69.4-8.7 7.2-.5 25.4-.9 40.5-.9l27.5.1-33 .7zm47.8.6c-2.4.2-6.2.2-8.5 0-2.4-.2-.5-.4 4.2-.4s6.6.2 4.3.4zm-161.5 70c-4.9.2-12.7.2-17.5 0-4.9-.1-.9-.3 8.7-.3s13.6.2 8.8.3zm-32 1c-1 .2-2.8.2-4 0-1.3-.2-.5-.4 1.7-.4 2.2-.1 3.2.1 2.3.4zm51 0c-1 .2-2.6.2-3.5 0-1-.3-.2-.5 1.7-.5s2.7.2 1.8.5zm-60.5 1c-.7.2-2.1.2-3 0-1-.3-.4-.5 1.2-.5 1.7 0 2.4.2 1.8.5zm69 0c-.7.2-1.9.2-2.5 0-.7-.3-.2-.5 1.2-.5s1.9.2 1.3.5zm-77 1c-.7.2-1.9.2-2.5 0-.7-.3-.2-.5 1.2-.5s1.9.2 1.3.5zm84 0c-.7.2-1.9.2-2.5 0-.7-.3-.2-.5 1.2-.5s1.9.2 1.3.5zm-90 1c-.7.2-1.9.2-2.5 0-.7-.3-.2-.5 1.2-.5s1.9.2 1.3.5zm96 0c-.7.2-1.9.2-2.5 0-.7-.3-.2-.5 1.2-.5s1.9.2 1.3.5zm5.4.9c-.3.3-1.2.4-1.9.1-.8-.3-.5-.6.6-.6 1.1-.1 1.7.2 1.3.5zm5 1c-.3.3-1.2.4-1.9.1-.8-.3-.5-.6.6-.6 1.1-.1 1.7.2 1.3.5zm4 1c-.3.3-1.2.4-1.9.1-.8-.3-.5-.6.6-.6 1.1-.1 1.7.2 1.3.5zm12 3c-.3.3-1.2.4-1.9.1-.8-.3-.5-.6.6-.6 1.1-.1 1.7.2 1.3.5zM397 167c.8.5 1.1 1 .5 1-.5 0-1.7-.5-2.5-1s-1-1-.5-1c.6 0 1.7.5 2.5 1zm20 8c.8.5 1.1 1 .5 1-.5 0-1.7-.5-2.5-1s-1-1-.5-1c.6 0 1.7.5 2.5 1zm169.7 10.6c-.3.3-1.2.4-1.9.1-.8-.3-.5-.6.6-.6 1.1-.1 1.7.2 1.3.5zm-4 1c-.3.3-1.2.4-1.9.1-.8-.3-.5-.6.6-.6 1.1-.1 1.7.2 1.3.5zm-5 1c-.3.3-1.2.4-1.9.1-.8-.3-.5-.6.6-.6 1.1-.1 1.7.2 1.3.5zm-5 1c-.3.3-1.2.4-1.9.1-.8-.3-.5-.6.6-.6 1.1-.1 1.7.2 1.3.5zm-5 1c-.3.3-1.2.4-1.9.1-.8-.3-.5-.6.6-.6 1.1-.1 1.7.2 1.3.5zm-5 1c-.3.3-1.2.4-1.9.1-.8-.3-.5-.6.6-.6 1.1-.1 1.7.2 1.3.5zm-5.4 1.1c-.7.2-1.9.2-2.5 0-.7-.3-.2-.5 1.2-.5s1.9.2 1.3.5zm-6 1c-.7.2-1.9.2-2.5 0-.7-.3-.2-.5 1.2-.5s1.9.2 1.3.5zm-7 1c-.7.2-1.9.2-2.5 0-.7-.3-.2-.5 1.2-.5s1.9.2 1.3.5zm-69.6.9c-.3.3-1.2.4-1.9.1-.8-.3-.5-.6.6-.6 1.1-.1 1.7.2 1.3.5zm62.6.1c-.7.2-2.1.2-3 0-1-.3-.4-.5 1.2-.5 1.7 0 2.4.2 1.8.5zm-57 1c-.7.2-1.9.2-2.5 0-.7-.3-.2-.5 1.2-.5s1.9.2 1.3.5zm49 0c-.7.2-2.1.2-3 0-1-.3-.4-.5 1.2-.5 1.7 0 2.4.2 1.8.5zm-42 1c-.7.2-2.1.2-3 0-1-.3-.4-.5 1.2-.5 1.7 0 2.4.2 1.8.5zm32.5 0c-1 .2-2.6.2-3.5 0-1-.3-.2-.5 1.7-.5s2.7.2 1.8.5zm-13.5 1c-2.3.2-6.4.2-9 0-2.6-.2-.7-.3 4.2-.3 5 0 7.1.1 4.8.3zM178 246c-42.1 7.7-77.9 22.7-155.8 65.3L-.1 323.5.5 334c1.9 33 7.3 61 17.5 90.5 4.4 12.6 11.6 30.4 13 31.9.5.4 7.6-2.5 15.8-6.7 53-26.5 96.2-34 141.8-24.8 4.6.9 8.4 1.5 8.4 1.3 0-.3-1.4-4.8-3.1-10.1-16.5-51.7-19.2-116-7-167.6.6-2.2.9-4 .8-4.1-.1 0-4.5.7-9.7 1.6z"/><path d="M191.6 296.2c-5.5.4-10.2 1.1-10.5 1.4-.3.3-.6 10.5-.5 22.7 0 19.4 1.1 34.8 3 45.2.5 3 .8 3.1 37.7 15.6 20.5 7 52.1 17.8 70.2 24.1 95.1 33 152.9 47.4 216.5 54 19.2 2 71.4 1.7 87-.5 6.8-1 12.8-2.3 13.2-3 1.4-2.3 9.6-22.2 10-24.1.3-2.2 1.2-1.7-51.2-24.3-17.3-7.4-48.6-21.4-69.5-31.1C394.9 329 353.2 313.3 302 303c-36.4-7.3-75.8-9.7-110.4-6.8zM192 486.1c-8.5.5-28.8 2-45 3.4s-40.5 3.4-54 4.5-27.8 2.4-31.9 2.8l-7.3.7 10.5 14c16.1 21.4 31.6 37.6 54.2 56.7 39.3 33 92.5 57.4 145.5 66.7 21.5 3.8 32.1 4.6 57 4.5 25.3 0 38.8-1.3 60.5-5.5 10.7-2.1 39.5-10 39.5-10.9 0-.3-5.6-1.9-12.4-3.7-25.5-6.6-55.6-19.2-73.6-30.8-5.2-3.4-12.2-7.6-15.5-9.3-7.4-4-21.8-14.7-34.8-26-19.1-16.6-41.2-41.7-53.5-60.8l-4.7-7.3-9.5.1c-5.2 0-16.5.5-25 .9z"/></svg>